<svg width="70" height="70" viewBox="0 0 70 70" fill="none" xmlns="http://www.w3.org/2000/svg">
<path fill-rule="evenodd" clip-rule="evenodd" d="M7 17.5C7 13.634 10.134 10.5 14 10.5H56C59.866 10.5 63 13.634 63 17.5V52.5C63 56.366 59.866 59.5 56 59.5H14C10.134 59.5 7 56.366 7 52.5V17.5ZM18.5251 22.0251C19.892 20.6583 22.108 20.6583 23.4749 22.0251L33.9749 32.5251C35.3417 33.892 35.3417 36.108 33.9749 37.4749L23.4749 47.9749C22.108 49.3417 19.892 49.3417 18.5251 47.9749C17.1583 46.608 17.1583 44.392 18.5251 43.0251L26.5503 35L18.5251 26.9749C17.1583 25.608 17.1583 23.392 18.5251 22.0251ZM38.5 42C36.567 42 35 43.567 35 45.5C35 47.433 36.567 49 38.5 49H49C50.933 49 52.5 47.433 52.5 45.5C52.5 43.567 50.933 42 49 42H38.5Z" fill="#9B1FF1"/>
</svg>
