<svg width="30" height="30" viewBox="0 0 30 30" fill="none" xmlns="http://www.w3.org/2000/svg">
<path d="M9.42375 28.125C20.745 28.125 26.9381 18.7444 26.9381 10.6238C26.9381 10.3613 26.9381 10.095 26.9269 9.83252C28.1326 8.95968 29.1732 7.87905 30 6.64127C28.8737 7.13786 27.6802 7.46515 26.4581 7.61252C27.7454 6.84309 28.7095 5.63246 29.1712 4.20564C27.9619 4.92213 26.6382 5.42509 25.2581 5.69252C24.3303 4.70444 23.1026 4.04986 21.7652 3.83019C20.4277 3.61051 19.0551 3.838 17.86 4.4774C16.6649 5.1168 15.714 6.13245 15.1546 7.36701C14.5952 8.60156 14.4585 9.98614 14.7656 11.3063C12.3183 11.1836 9.92403 10.5478 7.73821 9.44016C5.55238 8.33255 3.62378 6.77785 2.0775 4.87689C1.29251 6.23267 1.05295 7.83639 1.40746 9.36239C1.76197 10.8884 2.68398 12.2223 3.98625 13.0931C3.01039 13.06 2.05598 12.7979 1.2 12.3281V12.4125C1.20168 13.8328 1.6937 15.2089 2.59289 16.3083C3.49208 17.4077 4.74328 18.1629 6.135 18.4463C5.60674 18.5918 5.06106 18.6643 4.51313 18.6619C4.12684 18.6631 3.74134 18.6273 3.36187 18.555C3.75522 19.7776 4.52114 20.8466 5.55234 21.6122C6.58354 22.3777 7.82838 22.8016 9.1125 22.8244C6.93104 24.5378 4.23638 25.467 1.4625 25.4625C0.973726 25.4646 0.485293 25.4364 0 25.3781C2.81534 27.173 6.08493 28.126 9.42375 28.125V28.125Z" fill="#9B1FF1"/>
</svg>
